<svg width="0" height="0" class="hidden">
  <symbol xmlns="http://www.w3.org/2000/svg" aria-hidden="true" viewBox="0 0 24 24" id="facebook">
    <path fill="#fff" d="M14 13.5H16.5L17.5 9.5H14V7.5C14 6.47062 14 5.5 16 5.5H17.5V2.1401C17.1743 2.09685 15.943 2 14.6429 2C11.9284 2 10 3.65686 10 6.69971V9.5H7V13.5H10V22H14V13.5Z"></path>
  </symbol>
  <symbol xmlns="http://www.w3.org/2000/svg" aria-hidden="true" viewBox="0 0 16 16" id="github">
    <path fill="#fff" d="M8 0c4.42 0 8 3.58 8 8a8.013 8.013 0 0 1-5.45 7.59c-.4.08-.55-.17-.55-.38 0-.27.01-1.13.01-2.2 0-.75-.25-1.23-.54-1.48 1.78-.2 3.65-.88 3.65-3.95 0-.88-.31-1.59-.82-2.15.08-.2.36-1.02-.08-2.12 0 0-.67-.22-2.2.82-.64-.18-1.32-.27-2-.27-.68 0-1.36.09-2 .27-1.53-1.03-2.2-.82-2.2-.82-.44 1.1-.16 1.92-.08 2.12-.51.56-.82 1.28-.82 2.15 0 3.06 1.86 3.75 3.64 3.95-.23.2-.44.55-.51 1.07-.46.21-1.61.55-2.33-.66-.15-.24-.6-.83-1.23-.82-.67.01-.27.38.01.53.34.19.73.9.82 1.13.16.45.68 1.31 2.69.94 0 .67.01 1.3.01 1.49 0 .21-.15.45-.55.38A7.995 7.995 0 0 1 0 8c0-4.42 3.58-8 8-8z"></path>
  </symbol>
  <symbol xmlns="http://www.w3.org/2000/svg" aria-hidden="true" viewBox="0 0 24 24" id="linkedin">
    <path fill="#fff" d="M6.94048 4.99993C6.94011 5.81424 6.44608 6.54702 5.69134 6.85273C4.9366 7.15845 4.07187 6.97605 3.5049 6.39155C2.93793 5.80704 2.78195 4.93715 3.1105 4.19207C3.43906 3.44699 4.18654 2.9755 5.00048 2.99993C6.08155 3.03238 6.94097 3.91837 6.94048 4.99993ZM7.00048 8.47993H3.00048V20.9999H7.00048V8.47993ZM13.3205 8.47993H9.34048V20.9999H13.2805V14.4299C13.2805 10.7699 18.0505 10.4299 18.0505 14.4299V20.9999H22.0005V13.0699C22.0005 6.89993 14.9405 7.12993 13.2805 10.1599L13.3205 8.47993Z"></path>
  </symbol>
  <symbol xmlns="http://www.w3.org/2000/svg" fill="none" stroke-width="1.5" stroke="#fff" viewBox="0 0 24 24" id="mail">
    <path stroke-linecap="round" d="M16.5 12a4.5 4.5 0 11-9 0 4.5 4.5 0 019 0zm0 0c0 1.657 1.007 3 2.25 3S21 13.657 21 12a9 9 0 10-2.636 6.364M16.5 12V8.25"></path>
  </symbol>
</svg>