<?xml version="1.0" standalone="no"?>
<!DOCTYPE svg PUBLIC "-//W3C//DTD SVG 20010904//EN"
 "http://www.w3.org/TR/2001/REC-SVG-20010904/DTD/svg10.dtd">
<svg version="1.0" xmlns="http://www.w3.org/2000/svg"
 width="1080.000000pt" height="1080.000000pt" viewBox="0 0 1080.000000 1080.000000"
 preserveAspectRatio="xMidYMid meet">
<metadata>
Created by potrace 1.14, written by Peter Selinger 2001-2017
</metadata>
<g transform="translate(0.000000,1080.000000) scale(0.100000,-0.100000)"
fill="#000000" stroke="none">
<path d="M1070 10218 c0 -321 4 -588 8 -594 4 -7 77 -14 202 -18 107 -4 231
-9 275 -11 44 -2 191 -7 326 -10 136 -4 255 -8 265 -10 11 -2 33 -4 49 -4 l30
-1 -25 -20 c-49 -39 -86 -52 -163 -57 -68 -5 -80 -3 -93 13 -14 18 -14 18 -12
-1 2 -11 -2 -19 -9 -18 -6 2 -85 5 -175 8 -90 3 -194 10 -233 15 -38 5 -150 8
-248 7 -162 -3 -180 -5 -189 -21 -7 -13 -9 -922 -6 -2858 5 -2498 7 -2840 20
-2856 8 -9 28 -42 44 -72 15 -30 36 -66 46 -79 23 -31 24 -53 1 -44 -25 10
-53 36 -53 50 0 7 -9 17 -19 23 -11 5 -22 20 -24 32 -2 13 -5 -17 -6 -65 l-1
-88 65 -74 c36 -41 65 -79 65 -85 0 -23 -41 -9 -52 17 -15 36 -48 73 -65 73
-8 0 -13 -12 -13 -33 0 -24 8 -39 30 -57 37 -30 40 -49 4 -25 -14 9 -29 14
-32 10 -8 -8 -11 -2368 -4 -2952 l5 -413 4124 0 4123 0 -1 158 c0 86 1 902 3
1812 2 1311 0 1659 -9 1675 -7 11 -17 31 -23 45 -10 25 -30 60 -40 70 -5 5
-87 159 -105 197 -19 43 -33 26 -34 -42 0 -69 -6 -89 -22 -79 -6 4 -6 11 1 19
8 10 8 15 0 20 -6 4 -10 17 -8 28 1 12 -1 27 -5 34 -4 6 -3 14 1 17 14 8 -6
111 -29 150 -11 20 -18 40 -15 45 4 5 1 13 -5 17 -8 5 -10 3 -4 -7 5 -10 3 -9
-9 2 -11 10 -19 37 -22 73 -2 31 -11 69 -20 84 -11 19 -12 22 -2 10 23 -28 29
-10 8 27 -35 62 -45 75 -62 81 -10 3 -18 13 -18 23 0 10 -11 33 -24 52 -14 19
-33 52 -44 74 -16 33 -119 172 -157 211 -5 6 -26 29 -46 51 -47 52 -279 257
-344 304 -27 20 -83 55 -122 78 -40 23 -73 45 -73 50 0 4 -18 17 -40 30 -32
18 -39 27 -36 44 3 12 7 96 11 187 10 292 16 360 32 360 12 0 13 6 7 28 -12
44 -8 203 6 212 9 6 9 12 -2 30 -10 17 -10 24 -1 27 7 2 9 11 6 19 -3 8 2 23
11 33 9 10 13 21 9 24 -3 4 3 7 15 7 27 0 29 -28 4 -56 -14 -15 -16 -24 -7
-40 5 -11 16 -19 24 -16 10 3 12 -2 7 -21 -8 -32 2 -38 68 -41 51 -3 52 -2 63
31 5 18 6 33 2 33 -11 0 -11 11 1 30 7 12 12 12 29 -4 12 -11 21 -15 21 -11 0
4 9 0 20 -10 19 -17 27 -45 14 -45 -3 0 -13 7 -22 16 -14 15 -17 15 -29 -2
-12 -17 -11 -21 7 -36 25 -20 25 -24 -1 -51 l-21 -22 6 37 c8 45 -7 58 -29 24
-12 -17 -75 -180 -75 -192 0 -1 10 0 23 1 12 1 48 3 80 4 44 1 56 4 51 14 -6
9 -5 9 7 1 27 -22 99 1 99 32 0 8 4 12 10 9 6 -3 7 1 4 9 -5 13 4 16 57 17 35
1 82 1 104 0 46 -2 85 6 84 17 -1 4 0 12 1 17 1 6 3 19 4 30 1 24 47 33 64 12
9 -10 7 -18 -8 -35 -11 -11 -26 -24 -34 -29 -14 -8 -20 -25 -17 -49 1 -8 29
-12 82 -13 45 -1 84 -3 88 -5 3 -2 35 -7 71 -11 35 -4 73 -10 85 -15 11 -4 45
-8 75 -9 51 -2 76 -5 125 -14 11 -2 31 0 44 5 20 7 22 6 17 -9 -5 -12 -4 -15
3 -8 14 14 17 718 14 3068 l-3 1857 -4130 0 -4130 0 0 -582z m6441 499 c-8 -8
-11 -7 -11 4 0 20 13 34 18 19 3 -7 -1 -17 -7 -23z m-40 -60 c-10 -9 -11 -8
-5 6 3 10 9 15 12 12 3 -3 0 -11 -7 -18z m-4 -80 c0 -8 -6 -14 -14 -14 -17 0
-17 14 0 20 6 3 12 6 13 6 0 1 1 -5 1 -12z m-97 -342 c5 3 11 2 14 -3 2 -4 -5
-9 -17 -9 -23 -2 -39 15 -30 30 3 5 10 2 15 -7 5 -9 13 -14 18 -11z m63 12
c-2 -4 -3 -17 -4 -29 -1 -22 -1 -22 -9 2 -5 16 -8 19 -9 8 -1 -9 -5 -19 -9
-22 -6 -3 -8 40 -3 51 3 5 36 -5 34 -10z m53 -1 c-5 -35 -47 -57 -45 -23 0 9
2 8 6 -1 2 -6 9 -9 14 -6 6 3 5 12 -3 22 -8 10 -9 13 -1 9 6 -4 14 -3 18 3 9
14 14 12 11 -4z m330 -619 c-7 -31 -35 -44 -33 -17 1 10 5 16 10 13 4 -3 11 5
14 16 3 12 8 20 10 17 3 -3 3 -16 -1 -29z m-5063 -76 c10 -1 16 -5 13 -9 -4
-6 -24 -7 -69 -3 -5 1 -6 5 -3 10 4 5 14 8 24 6 9 -2 25 -4 35 -4z m187 -11
c0 -4 -36 -6 -80 -6 -44 1 -80 4 -80 7 0 4 36 6 80 6 44 -1 80 -4 80 -7z m40
0 c-19 -13 -30 -13 -30 0 0 6 10 10 23 10 18 0 19 -2 7 -10z m105 1 c3 -5 1
-12 -5 -16 -5 -3 -10 -1 -10 5 0 8 -6 7 -21 -1 -13 -6 -19 -7 -15 -1 3 6 -2
13 -11 15 -10 3 -1 5 19 6 20 0 39 -3 43 -8z m94 -7 c8 -7 -48 -16 -59 -9 -19
12 1 25 28 19 15 -4 29 -8 31 -10z m402 -4 c13 -8 19 -7 19 0 0 6 5 8 10 5 6
-3 10 -11 10 -17 0 -6 -3 -9 -6 -5 -3 3 -16 2 -29 -3 -13 -5 -26 -6 -30 -2 -4
4 -37 7 -73 8 -37 0 -92 2 -123 4 -30 2 -61 0 -69 -5 -9 -6 -11 -4 -5 5 6 10
0 12 -24 8 -17 -2 -31 -1 -31 4 0 12 328 10 351 -2z m4199 -20 c0 -16 -4 -30
-8 -30 -5 0 -7 14 -4 30 2 17 6 30 8 30 2 0 4 -13 4 -30z m-3230 5 c241 -5
601 -15 700 -20 88 -4 489 -15 805 -21 176 -3 329 -8 340 -10 11 -2 125 -4
252 -5 170 0 233 -4 234 -12 5 -50 -15 -81 -35 -55 -7 10 -16 15 -19 11 -4 -3
-7 -1 -7 6 0 8 -5 9 -18 2 -13 -7 -22 -7 -29 0 -6 6 -23 12 -39 14 -16 2 -29
4 -29 5 0 1 -28 2 -63 3 -34 1 -62 0 -62 -3 0 -3 -19 -6 -43 -7 -126 -5 -167
-9 -167 -14 0 -3 -51 -6 -112 -6 -62 -1 -153 -2 -203 -3 -118 -1 -270 10 -270
20 0 5 -97 19 -150 22 -36 2 -388 -12 -465 -19 -41 -4 -79 -5 -85 -4 -36 10
-68 11 -80 1 -7 -6 -16 -7 -19 -2 -3 5 -22 9 -43 9 -21 0 -92 3 -158 7 -66 4
-181 9 -255 11 -74 3 -173 7 -220 10 -47 3 -141 7 -209 8 -113 3 -125 5 -132
23 -19 48 -20 47 159 41 92 -4 282 -9 422 -12z m3130 -129 c0 -7 8 -24 19 -37
12 -15 16 -31 11 -44 -5 -16 -10 -11 -22 25 -9 25 -19 54 -24 64 -5 14 -4 17
4 12 7 -4 12 -13 12 -20z m60 0 c0 -17 -14 -29 -23 -20 -8 8 3 34 14 34 5 0 9
-6 9 -14z m100 -16 c0 -5 -5 -10 -11 -10 -5 0 -7 5 -4 10 3 6 8 10 11 10 2 0
4 -4 4 -10z m-973 -80 c-1 -10 -4 -17 -8 -14 -4 2 -7 13 -6 24 1 10 4 17 8 14
4 -2 7 -13 6 -24z m953 -5 c-6 -7 -12 -27 -12 -42 -1 -20 -6 -29 -18 -30 -13
-1 -16 4 -12 23 2 13 8 24 13 24 5 0 9 8 9 18 0 22 23 48 28 32 2 -6 -1 -17
-8 -25z m15 -24 c-3 -11 0 -23 6 -27 7 -4 9 -3 5 4 -3 6 -2 13 3 16 12 8 8
-13 -7 -42 -7 -12 -17 -20 -23 -17 -15 10 -10 -11 6 -25 11 -9 15 -9 15 -1 0
7 5 9 10 6 6 -4 8 -10 5 -15 -3 -5 -1 -11 4 -15 6 -3 8 4 6 15 -2 12 0 18 6
14 6 -3 9 -18 7 -32 -2 -17 2 -26 10 -24 6 1 12 -3 12 -10 0 -6 3 -8 6 -5 4 4
1 13 -6 22 -7 8 -10 21 -7 29 7 17 -17 41 -32 32 -18 -11 -21 11 -4 25 14 12
16 12 8 0 -6 -11 -4 -13 9 -8 9 4 15 3 12 -2 -3 -5 0 -14 8 -20 8 -7 12 -22 9
-34 -4 -17 -2 -19 5 -8 7 10 9 -10 6 -63 -3 -49 -2 -76 4 -72 6 3 8 -2 5 -13
-6 -23 16 -39 28 -20 6 10 9 3 10 -21 1 -29 2 -31 7 -12 8 25 24 31 30 10 2
-9 0 -8 -7 2 -9 12 -11 11 -11 -8 0 -15 4 -21 12 -16 8 5 9 2 5 -9 -3 -9 -2
-19 3 -22 5 -3 7 -13 4 -23 -5 -15 -4 -15 6 -2 10 12 11 11 6 -10 l-5 -25 19
25 c11 14 18 34 16 44 -4 14 -2 16 6 8 8 -8 6 -21 -6 -47 -10 -20 -15 -43 -12
-50 9 -24 -20 -38 -54 -27 -24 9 -33 8 -45 -5 -9 -8 -17 -14 -19 -12 -1 2 -22
54 -46 114 -23 61 -58 142 -76 181 -19 39 -34 82 -34 97 0 29 18 46 30 27 10
-17 25 18 32 78 1 6 5 12 10 12 5 0 7 -9 3 -19z m-972 -28 c-7 -3 -13 -9 -13
-14 0 -6 5 -7 11 -3 12 7 8 -90 -4 -102 -4 -4 -7 -2 -7 5 0 7 -6 11 -12 8 -18
-6 -47 10 -44 25 1 7 8 22 15 33 10 16 11 17 7 2 -4 -11 -2 -16 5 -11 6 3 9
15 6 25 -3 12 -1 17 6 12 6 -4 8 -1 5 8 -4 10 1 15 16 16 11 0 15 -1 9 -4z
m-19 -152 c3 -5 -1 -11 -9 -14 -9 -4 -12 -1 -8 9 6 16 10 17 17 5z m22 -121
c-2 -66 -1 -122 3 -124 22 -14 31 22 32 134 l0 45 13 -29 c9 -19 11 -40 5 -58
-4 -16 -5 -43 -2 -61 l5 -32 174 -2 c168 -3 174 -2 174 17 0 11 4 20 10 20 5
0 7 -6 4 -14 -8 -22 12 -28 89 -26 242 5 222 7 225 -16 l3 -22 -363 -1 c-199
-1 -366 -5 -371 -10 -16 -16 5 -41 36 -41 29 0 30 0 12 -20 -26 -29 -76 -26
-103 5 -12 14 -30 25 -41 25 -20 0 -37 16 -43 40 -2 8 -7 18 -13 22 -6 5 -4 8
5 8 13 0 13 1 0 10 -12 8 -12 10 5 10 17 0 17 2 5 10 -8 5 -11 10 -6 10 5 0 3
7 -4 15 -11 13 -10 14 3 9 13 -5 15 0 11 21 -3 16 -1 24 5 21 6 -4 8 5 5 21
-3 23 -2 25 7 10 11 -18 29 -15 29 6 0 7 -4 6 -11 -3 -8 -12 -9 -10 -7 9 2 14
10 26 18 28 13 4 13 3 0 -6 -8 -6 -10 -11 -4 -11 17 0 25 12 15 24 -6 7 -3 17
7 26 14 13 15 12 9 -3 -3 -9 -2 -19 4 -22 5 -4 8 -1 7 7 -2 7 3 12 10 11 11
-3 13 1 12 22 0 5 23 34 28 35 1 0 0 -54 -2 -120z m861 58 c-3 -8 -6 -5 -6 6
-1 11 2 17 5 13 3 -3 4 -12 1 -19z m68 -151 c14 -37 25 -73 22 -80 -2 -6 3
-17 10 -22 14 -11 73 -140 73 -160 0 -11 -99 -69 -106 -62 -2 2 -8 42 -14 88
-11 91 -27 216 -34 264 -3 17 -8 48 -11 70 l-6 40 19 -35 c11 -19 32 -65 47
-103z m255 77 c0 -8 -19 -13 -24 -6 -3 5 1 9 9 9 8 0 15 -2 15 -3z m-20 -33
c13 -25 -3 -36 -21 -14 -12 14 -12 16 0 8 11 -6 13 -4 8 8 -9 23 0 21 13 -2z
m345 -131 c-3 -5 -11 -10 -16 -10 -6 0 -7 5 -4 10 3 6 11 10 16 10 6 0 7 -4 4
-10z m-373 -32 c3 -7 -2 -30 -10 -50 l-15 -38 -22 32 c-40 60 -39 68 4 68 22
0 41 -5 43 -12z m134 -8 c23 0 16 -19 -11 -32 -32 -15 -39 -7 -23 27 7 15 14
22 16 16 2 -6 10 -11 18 -11z m-806 -3 c80 -1 151 -7 159 -11 11 -7 12 -6 6 5
-8 12 -6 12 8 0 14 -11 20 -11 34 0 11 10 14 10 9 2 -4 -7 -3 -13 1 -13 5 0
15 6 22 13 11 10 12 9 6 -3 -8 -13 -6 -13 8 -1 14 11 18 10 26 -10 15 -37 39
-222 46 -344 16 -317 25 -524 30 -745 3 -135 8 -281 10 -325 2 -44 1 -112 -2
-152 l-6 -72 -48 -26 c-46 -24 -49 -24 -49 -6 0 11 4 31 10 45 10 27 4 59 -10
51 -5 -3 -12 -26 -16 -51 -7 -50 -16 -48 -33 7 -7 20 -25 53 -42 72 l-31 36
-40 -30 c-71 -51 -81 -27 -17 39 33 35 43 41 55 31 11 -9 14 -7 14 9 0 11 6
22 13 25 9 3 9 8 1 16 -8 9 -17 9 -38 0 -22 -10 -32 -10 -54 2 -15 9 -31 15
-37 14 -26 -4 -71 -19 -81 -27 -18 -13 -102 -19 -110 -7 -7 12 -44 -17 -44
-35 0 -5 12 -22 26 -37 19 -20 24 -33 19 -46 -5 -10 -7 -21 -7 -25 2 -8 -14
-12 -32 -9 -4 1 -20 -6 -33 -15 -41 -26 -79 -28 -101 -4 -21 23 -67 37 -55 17
5 -8 2 -8 -9 1 -18 15 -43 21 -113 28 -103 11 -114 11 -108 0 3 -6 1 -6 -7 1
-10 9 -17 7 -32 -10 -11 -12 -17 -16 -13 -9 3 6 1 12 -5 12 -6 0 -9 4 -6 8 3
5 -9 8 -27 7 -22 0 -31 -5 -29 -15 3 -11 -1 -10 -16 3 -13 12 -18 26 -15 40 4
16 2 18 -5 8 -8 -11 -12 -10 -21 6 -5 11 -8 22 -6 25 3 3 -1 5 -8 5 -7 0 -14
-10 -15 -21 -1 -17 1 -18 9 -6 7 10 9 11 7 2 -5 -19 -23 -15 -25 5 0 10 -3 32
-4 50 -2 17 -7 29 -11 27 -4 -3 -8 3 -8 12 0 10 -3 14 -7 11 -3 -4 -1 -18 6
-31 8 -13 11 -30 8 -38 -3 -7 -6 -3 -6 10 -1 13 -5 20 -11 17 -6 -4 -10 -3 -9
2 1 4 1 19 0 32 -1 20 -3 22 -16 11 -13 -11 -14 -10 -10 3 4 8 1 18 -6 23 -8
4 -10 3 -5 -4 4 -7 5 -12 2 -12 -2 0 -14 16 -27 36 -20 33 -21 44 -15 138 7
111 29 200 58 232 20 22 48 28 48 10 1 -15 24 26 25 43 0 7 11 20 25 28 l25
15 -24 -19 c-19 -16 -21 -22 -10 -28 8 -5 11 -5 7 -1 -4 5 9 22 28 39 19 18
34 38 34 44 0 16 22 17 38 1 17 -17 28 20 13 44 -7 11 -8 17 -3 14 5 -3 12 4
15 16 5 18 8 19 21 8 13 -10 16 -10 16 4 0 10 5 14 10 11 6 -4 7 -11 4 -17 -4
-7 -2 -8 4 -4 7 4 12 14 12 22 0 8 7 14 15 14 13 0 19 -11 17 -31 -1 -3 5 -6
13 -6 8 0 12 3 10 6 -2 4 3 15 11 26 8 11 14 14 14 6 0 -11 3 -11 15 -1 8 7
15 20 15 29 0 12 2 13 9 3 7 -11 9 -11 14 2 8 19 67 22 67 4 0 -8 3 -9 8 -3 6
10 19 11 80 7 12 -1 31 -11 42 -22 11 -11 20 -18 20 -15 0 3 10 0 23 -7 26
-14 49 -19 42 -9 -2 4 8 7 23 6 15 -1 33 3 41 9 12 9 12 7 1 -14 -12 -23 -12
-24 3 -12 9 8 22 10 28 6 7 -4 10 -3 7 2 -10 16 10 54 25 48 23 -8 40 21 27
46 -16 30 -8 34 35 16 35 -15 37 -15 42 4 6 23 9 23 76 20 44 -2 47 0 47 24 0
35 -32 106 -47 106 -7 0 -13 7 -13 15 0 8 5 15 10 15 18 0 10 29 -12 44 -19
14 -19 16 -5 22 32 12 21 63 -23 105 -22 22 -46 39 -53 39 -9 0 -14 12 -15 31
-1 41 -7 46 -67 52 -11 1 -21 12 -25 26 -3 15 -14 25 -29 28 -20 3 -141 112
-141 127 0 8 33 12 70 9 19 -2 100 -5 180 -6z m1043 -118 c-3 -9 0 -20 6 -23
7 -4 8 -1 5 8 -3 9 -1 16 5 16 6 0 10 -6 9 -12 -2 -7 4 -12 12 -10 11 3 12 1
3 -8 -7 -8 -8 -22 -3 -40 5 -18 4 -33 -3 -41 -10 -11 -9 -11 4 -1 9 6 20 8 24
4 5 -4 5 -1 1 6 -4 6 -2 12 3 12 14 0 14 -16 1 -41 -8 -15 -8 -19 2 -17 7 2
12 -2 11 -9 -2 -6 9 -21 22 -31 23 -19 36 -40 16 -28 -5 3 -11 -8 -13 -24 -6
-38 -3 -38 16 0 8 17 13 45 10 64 -4 34 9 56 20 37 4 -5 2 -12 -3 -15 -5 -3
-6 -21 -2 -39 5 -18 6 -43 4 -55 -2 -16 1 -21 9 -16 8 5 9 2 5 -9 -3 -9 -1
-19 5 -23 6 -4 8 -3 4 4 -3 6 1 18 10 26 8 9 12 16 8 16 -5 0 -3 5 4 12 9 9 8
16 -6 32 -15 18 -15 19 0 8 14 -11 18 -10 27 5 6 10 11 13 11 6 0 -6 -4 -14
-10 -18 -5 -3 -6 -13 -3 -21 5 -15 7 -14 15 0 12 22 39 2 32 -22 -5 -14 -2
-13 10 2 9 11 17 15 17 8 1 -7 3 -16 4 -22 1 -5 3 -15 4 -21 0 -5 7 -7 14 -3
9 6 9 4 1 -7 -13 -17 -12 -45 2 -42 5 1 9 -15 7 -35 -2 -29 -1 -33 6 -17 9 18
10 17 10 -8 1 -16 -3 -26 -8 -22 -5 3 -13 1 -16 -5 -4 -6 -1 -9 7 -8 7 2 12
-4 10 -12 -2 -8 0 -12 4 -8 4 5 13 -1 21 -11 7 -12 22 -18 33 -16 10 2 30 -5
43 -15 13 -11 27 -16 31 -13 12 12 6 -13 -6 -27 -7 -8 -4 -8 6 2 17 15 14 44
-4 33 -5 -3 -11 -1 -14 4 -4 5 -2 12 4 16 5 3 10 12 10 18 0 8 -3 8 -9 -1 -7
-11 -9 -11 -14 2 -7 18 8 31 18 16 4 -6 11 -7 17 -4 6 4 6 0 -1 -13 -11 -22
-6 -33 12 -29 7 2 9 1 5 -1 -5 -3 -3 -13 2 -24 11 -19 10 -20 -12 -23 -15 -1
-18 -26 -6 -43 6 -7 4 -14 -3 -19 -7 -4 -9 -3 -5 4 3 6 2 13 -4 17 -6 4 -8 10
-5 14 2 5 -4 16 -15 26 -11 10 -17 21 -15 26 3 4 1 10 -4 13 -11 7 -9 -13 2
-31 10 -16 -5 -17 -20 -2 -6 6 -9 19 -6 28 4 13 3 14 -5 1 -7 -9 -7 -19 -2
-26 6 -6 6 -15 2 -19 -4 -5 -1 -5 6 -1 7 4 12 2 12 -5 0 -8 4 -9 13 0 10 8 14
7 15 -2 0 -6 3 -24 6 -39 6 -28 -7 -47 -20 -27 -4 8 -3 9 4 5 7 -4 12 -3 12 3
0 16 -18 22 -24 9 -4 -9 -5 -8 -5 2 2 28 -1 40 -10 40 -11 0 -2 -48 11 -56 5
-4 5 -10 0 -17 -6 -7 -6 -20 -1 -32 8 -18 8 -17 6 5 -1 17 2 24 13 22 8 -2 20
4 26 13 10 14 12 14 17 0 4 -8 1 -14 -5 -12 -7 1 -12 -7 -12 -18 0 -11 6 -19
13 -17 7 1 3 -11 -10 -30 -13 -19 -16 -27 -7 -20 14 11 17 9 26 -15 7 -19 11
-22 11 -10 1 10 5 16 10 13 5 -3 7 -15 4 -26 -3 -11 -9 -17 -14 -14 -5 3 -9 2
-8 -3 1 -4 0 -10 -1 -13 -6 -16 -7 -41 -2 -35 4 4 7 12 7 18 0 7 9 12 20 12
11 -1 19 -6 17 -13 -1 -9 5 -8 22 3 18 12 26 13 32 4 4 -7 3 -9 -3 -6 -6 4
-16 0 -23 -8 -7 -8 -20 -15 -29 -15 -14 0 -14 -2 -1 -10 10 -6 -87 -10 -283
-10 l-299 0 1 -197 c1 -109 -1 -229 -3 -268 -3 -38 -7 -124 -10 -190 -2 -66
-7 -138 -10 -160 -4 -22 -8 -88 -10 -147 -3 -89 -1 -108 11 -108 9 0 11 5 6
13 -13 20 -12 36 3 48 8 6 12 15 9 19 -3 5 -1 11 4 14 11 7 9 -13 -4 -34 -13
-21 -15 -39 -4 -46 5 -3 10 0 10 5 2 15 4 23 13 43 7 15 10 15 21 4 9 -9 12
-29 8 -62 -2 -27 -6 -65 -7 -84 -5 -63 -5 -63 -24 -40 -11 13 -24 20 -30 16
-15 -9 -16 -26 -1 -26 5 0 7 6 3 13 -5 8 -3 8 9 -2 9 -7 14 -17 11 -22 -3 -5
2 -9 10 -9 18 0 21 -15 6 -25 -5 -3 -8 -11 -6 -18 1 -7 1 -8 -2 -3 -2 4 -8 2
-13 -5 -7 -12 -9 -12 -9 0 0 11 -3 11 -15 1 -9 -7 -18 -10 -22 -6 -3 3 0 6 8
6 12 0 12 2 0 9 -9 6 -10 11 -2 15 6 4 11 2 11 -4 0 -6 5 -8 10 -5 6 3 10 11
10 16 0 6 -4 7 -10 4 -5 -3 -10 -1 -10 5 0 7 7 10 18 6 11 -4 9 0 -5 10 -23
17 -31 44 -13 44 6 0 10 8 10 18 0 13 2 14 9 4 4 -8 12 -13 17 -13 5 1 9 -3 9
-8 0 -5 3 -13 8 -17 9 -9 9 4 1 44 -5 23 -10 29 -23 24 -13 -5 -13 -3 2 13 21
21 8 36 -24 28 -23 -6 -25 -31 -4 -39 13 -5 12 -11 -6 -35 -11 -17 -18 -36
-15 -44 3 -8 2 -17 -3 -19 -4 -3 -9 -28 -10 -56 -1 -29 3 -49 8 -46 5 3 14 -8
20 -24 5 -17 6 -28 2 -25 -13 7 -20 -30 -9 -49 8 -14 12 -15 25 -5 23 19 53
21 53 4 0 -8 5 -15 10 -15 6 0 10 7 10 15 0 18 31 20 48 3 16 -16 15 -28 -2
-28 -7 0 -25 -9 -40 -21 -22 -17 -27 -18 -32 -6 -3 8 -19 18 -36 21 -41 8 -58
23 -58 51 0 14 -7 25 -20 28 -11 3 -20 1 -20 -4 0 -4 -7 -6 -15 -3 -12 5 -13
10 -4 20 6 8 16 11 22 7 6 -3 7 -1 3 5 -4 7 -14 12 -22 12 -8 0 -12 -4 -9 -10
7 -11 6 -11 -40 -15 -16 -1 -37 -4 -45 -6 -13 -3 -15 22 -12 191 1 107 7 269
13 360 5 91 12 215 14 275 6 137 32 445 46 545 16 119 50 351 59 400 16 87 49
256 60 304 12 55 37 81 58 63 7 -5 12 -6 11 -1 -3 20 2 35 10 29 6 -3 8 -14 6
-25 -3 -14 1 -17 13 -13 15 6 15 5 -1 -14 -14 -16 -14 -20 -2 -20 8 0 12 4 9
9 -3 4 0 8 5 8 19 0 12 46 -9 65 -11 10 -20 24 -20 32 0 7 -4 13 -10 13 -5 0
-7 -7 -4 -15 4 -8 1 -15 -5 -15 -12 0 -15 23 -5 33 13 13 41 3 37 -14z m-56
-11 c-3 -8 -6 -5 -6 6 -1 11 2 17 5 13 3 -3 4 -12 1 -19z m-202 -15 c-4 -10
-8 -27 -9 -38 -2 -11 -6 -33 -9 -50 -4 -16 -9 -48 -12 -70 -2 -22 -11 -80 -20
-130 -9 -49 -24 -137 -33 -195 l-17 -105 -87 -30 c-48 -16 -90 -26 -94 -22 -8
7 -18 139 -29 369 -6 136 -6 136 17 143 31 10 92 37 98 45 3 4 23 14 45 22 22
9 65 30 95 47 66 36 64 35 55 14z m275 -35 c0 -4 -5 -8 -11 -8 -5 0 -8 4 -5 9
3 5 -1 14 -8 20 -11 10 -17 8 -25 -6 -9 -16 -10 -16 -11 -1 0 9 6 18 13 21 13
5 47 -20 47 -35z m-75 12 c-3 -5 -11 -10 -16 -10 -6 0 -7 5 -4 10 3 6 11 10
16 10 6 0 7 -4 4 -10z m112 -27 c-3 -10 -5 -4 -5 12 0 17 2 24 5 18 2 -7 2
-21 0 -30z m48 -13 c-3 -5 -1 -10 6 -10 7 0 4 -7 -7 -16 -18 -14 -18 -15 6 -9
14 4 20 3 15 -2 -13 -9 -13 -23 -1 -41 12 -19 -1 -27 -19 -12 -9 7 -13 15 -11
18 3 2 1 12 -4 22 -5 10 -6 21 -2 25 4 3 8 11 8 16 2 16 4 19 10 19 3 0 2 -4
-1 -10z m85 -64 c0 -2 -7 -7 -16 -10 -8 -3 -12 -2 -9 4 6 10 25 14 25 6z m110
-49 c0 -8 -7 -14 -15 -14 -25 0 -17 17 13 26 1 1 2 -5 2 -12z m-117 -37 c-7
-28 -13 -25 -13 6 0 14 4 23 9 20 5 -3 7 -15 4 -26z m197 -107 c12 10 12 9 2
-4 -6 -9 -8 -20 -4 -24 4 -5 1 -5 -5 -1 -9 5 -13 -1 -13 -18 0 -14 0 -29 -1
-33 0 -4 5 -9 12 -12 7 -2 9 1 4 9 -5 9 -4 11 4 6 6 -4 9 -12 6 -17 -4 -5 1
-9 10 -9 9 0 14 4 10 9 -3 5 -1 12 4 15 5 4 8 -2 7 -11 -2 -10 4 -24 13 -31
14 -11 12 -11 -7 -2 -13 6 -30 9 -37 6 -22 -8 -42 34 -34 72 6 31 4 36 -14 33
-5 -1 -6 3 -2 9 5 8 11 8 19 1 9 -7 17 -7 26 2z m20 -49 c0 -8 -19 -13 -24 -6
-3 5 1 9 9 9 8 0 15 -2 15 -3z m-1980 -248 c0 -3 -4 -8 -10 -11 -5 -3 -10 -1
-10 4 0 6 5 11 10 11 6 0 10 -2 10 -4z m2128 -51 c-3 -3 -9 2 -12 12 -6 14 -5
15 5 6 7 -7 10 -15 7 -18z m-922 -72 c-23 -218 -36 -365 -36 -416 0 -52 -2
-58 -26 -67 -14 -6 -41 -10 -60 -10 l-34 0 0 178 c0 97 -3 209 -7 249 -5 71
-5 71 24 86 16 9 47 18 68 22 22 4 47 11 55 16 8 5 17 9 19 9 2 0 1 -30 -3
-67z m864 52 c0 -8 -2 -15 -4 -15 -2 0 -6 7 -10 15 -3 8 -1 15 4 15 6 0 10 -7
10 -15z m30 -10 c5 3 6 -10 4 -27 l-4 -33 15 25 c9 14 14 17 11 8 -3 -10 0
-18 6 -18 7 0 6 -5 -2 -15 -9 -11 -16 -12 -25 -5 -6 5 -15 7 -19 3 -4 -4 -3 5
3 19 7 17 7 29 1 33 -6 4 -9 14 -9 23 1 15 2 15 6 -1 2 -9 8 -15 13 -12z
m-2240 -14 c-1 -14 -2 -14 -14 1 -7 10 -17 14 -21 10 -5 -4 -5 -2 -1 5 9 16
36 5 36 -16z m2275 19 c3 -5 1 -10 -4 -10 -6 0 -11 5 -11 10 0 6 2 10 4 10 3
0 8 -4 11 -10z m-2415 -124 c0 -3 -4 -8 -10 -11 -5 -3 -10 -1 -10 4 0 6 5 11
10 11 6 0 10 -2 10 -4z m-479 -342 c9 -11 5 -21 -15 -45 -30 -35 -31 -72 -3
-77 11 -2 31 -17 45 -34 20 -21 39 -31 71 -35 41 -6 44 -5 35 13 -10 22 -10
102 0 112 4 3 14 2 24 -4 19 -12 29 -123 14 -151 -7 -11 -7 -26 0 -42 8 -21 6
-29 -12 -43 -31 -25 -64 -22 -125 8 -68 35 -127 89 -152 139 -25 48 -41 131
-24 121 28 -18 49 -14 62 12 7 15 17 32 21 38 10 14 43 7 59 -12z m1914 -306
c-9 -249 -16 -348 -26 -349 -5 -1 -15 -2 -21 -3 -7 -1 -25 2 -40 7 -21 7 -28
15 -28 35 0 42 13 56 39 43 13 -7 21 -8 21 -2 0 6 -10 16 -22 22 -13 7 -26 16
-29 22 -12 17 3 46 25 50 l21 4 -22 8 c-22 7 -23 11 -23 156 0 166 1 168 73
169 l38 0 -6 -162z m1030 113 c-1 -9 0 -20 4 -26 3 -5 6 -14 7 -20 1 -5 3 -14
4 -20 4 -19 0 -35 -9 -35 -5 0 -8 11 -5 24 2 14 0 28 -6 31 -6 4 -7 12 -4 18
4 7 3 8 -1 4 -12 -10 -15 -38 -4 -31 5 3 9 1 9 -5 0 -5 -4 -12 -9 -15 -5 -4
-8 -18 -6 -34 2 -15 -1 -32 -7 -39 -17 -21 12 -133 35 -133 6 0 6 5 -1 13 -5
6 -12 21 -16 33 -5 16 -2 20 18 20 17 0 22 -4 18 -15 -5 -13 -3 -14 10 -4 13
11 15 8 14 -20 -1 -22 3 -31 12 -29 8 1 11 -2 7 -8 -5 -8 -11 -7 -21 1 -14 12
-20 -2 -6 -15 10 -10 10 -66 0 -60 -4 3 -8 -7 -9 -23 0 -25 -1 -26 -10 -8 -8
17 -9 15 -5 -10 4 -28 3 -28 -10 -10 -13 18 -14 17 -9 -10 11 -70 13 -136 2
-132 -6 2 -13 9 -15 17 -3 7 0 10 7 6 6 -4 11 -2 11 3 0 6 -4 11 -9 11 -5 0
-7 10 -4 23 3 12 3 19 -1 15 -11 -9 -16 -89 -5 -82 16 10 9 -16 -13 -51 -24
-37 -42 -47 -31 -17 3 9 3 14 -1 11 -4 -4 -9 -17 -11 -29 -7 -37 -13 -34 -17
9 -2 23 0 41 3 41 4 0 5 9 2 20 -7 25 6 112 15 106 4 -2 7 28 7 67 0 102 27
387 36 387 4 0 6 8 4 18 -2 11 3 19 10 19 7 0 12 -7 10 -16z m-1491 -78 c3
-10 6 -21 6 -25 1 -4 12 -31 25 -60 38 -82 30 -156 -15 -128 -8 5 -22 4 -31
-1 -14 -7 -20 -3 -30 20 -9 20 -18 27 -31 23 -29 -7 -21 17 17 55 19 19 35 37
35 39 0 2 -13 4 -30 4 -16 0 -30 3 -30 8 0 19 54 81 72 82 4 0 9 -8 12 -17z
m-499 -51 c-3 -3 -11 0 -18 7 -9 10 -8 11 6 5 10 -3 15 -9 12 -12z m1997 -14
c-8 -8 -9 -4 -5 13 4 13 8 18 11 10 2 -7 -1 -18 -6 -23z m-1754 -10 c-2 -6
-12 -12 -21 -14 -9 -1 -15 2 -11 7 3 5 10 7 15 4 5 -4 9 -1 9 4 0 6 3 11 6 11
3 0 4 -5 2 -12z m1086 -4 c3 -8 2 -12 -4 -9 -6 3 -10 10 -10 16 0 14 7 11 14
-7z m666 -14 l-25 -20 27 4 c15 3 30 1 33 -4 3 -5 -4 -7 -15 -5 -11 2 -20 0
-20 -4 0 -4 -6 -8 -13 -8 -7 0 -13 11 -13 23 0 12 3 21 6 19 3 -2 12 0 20 6
26 16 26 9 0 -11z m-600 -40 c0 -27 -4 -40 -13 -40 -8 0 -14 7 -14 15 0 8 4
15 9 15 4 0 8 11 8 25 0 14 2 25 5 25 3 0 5 -18 5 -40z m-1220 -69 c0 -4 -11
-6 -25 -3 -14 2 -25 6 -25 8 0 2 11 4 25 4 14 0 25 -4 25 -9z m180 -31 c0 -5
-5 -10 -11 -10 -5 0 -7 5 -4 10 3 6 8 10 11 10 2 0 4 -4 4 -10z m41 -33 c-17
-17 -24 -1 -10 25 12 21 14 21 17 4 2 -10 -1 -23 -7 -29z m109 23 c0 -5 -2
-10 -4 -10 -3 0 -8 5 -11 10 -3 6 -1 10 4 10 6 0 11 -4 11 -10z m827 -5 c0 -8
-4 -12 -9 -9 -5 3 -6 10 -3 15 9 13 12 11 12 -6z m-677 -53 c0 -17 -17 -7 -31
19 -9 18 -9 19 10 7 12 -7 21 -19 21 -26z m-447 -1 c16 -6 42 -11 58 -11 16 0
29 -5 29 -11 0 -7 11 -8 30 -4 l30 7 -22 -35 c-13 -19 -39 -42 -59 -51 -85
-38 -239 -10 -239 44 0 11 5 20 11 20 5 0 7 6 3 13 -5 8 -2 8 9 -2 15 -11 17
-11 17 2 0 8 8 21 18 28 15 12 16 12 7 -2 -8 -11 -7 -11 5 1 16 18 58 19 103
1z m306 -89 c7 -20 15 -44 18 -52 3 -8 -5 -3 -19 11 -14 15 -34 30 -46 33 -28
9 -38 36 -10 28 18 -4 20 -2 16 22 -5 25 -4 26 12 11 9 -8 22 -32 29 -53z
m-124 21 c-3 -16 -11 -32 -16 -37 -5 -6 -4 5 1 25 6 18 10 35 10 36 0 2 3 3 6
3 3 0 3 -12 -1 -27z m916 -4 c-5 -13 -10 -19 -10 -12 -1 15 10 45 15 40 3 -2
0 -15 -5 -28z m-627 -15 c9 -24 7 -28 -9 -14 -17 14 -20 30 -6 30 5 0 12 -7
15 -16z m-38 -74 c1 -36 -28 -94 -38 -78 -10 16 -11 92 -1 102 15 14 38 0 39
-24z m-283 12 c-6 -4 -14 -24 -18 -45 -9 -44 -25 -59 -25 -22 0 29 27 75 44
75 8 0 8 -2 -1 -8z m518 -47 c19 0 36 -34 33 -67 -1 -18 -3 -33 -4 -33 -1 0
-4 -13 -6 -28 -4 -23 -1 -27 13 -25 16 3 18 -6 18 -94 0 -73 -3 -99 -13 -103
-8 -3 -17 -3 -22 0 -12 8 -21 -25 -11 -43 8 -17 7 -49 -2 -59 -3 -2 -11 12
-18 31 -7 20 -16 36 -20 36 -17 0 -30 67 -19 96 6 16 12 62 12 101 1 60 3 71
14 62 11 -9 14 -7 14 10 0 12 -4 30 -9 39 -4 9 -11 39 -14 67 -5 45 -4 48 9
30 8 -11 20 -20 25 -20z m59 4 c0 -30 -1 -31 -22 -16 -13 8 -21 18 -20 22 2 4
-2 12 -10 16 -9 6 -2 9 20 9 29 0 32 -3 32 -31z m382 -1 c-6 -6 -15 -8 -19 -4
-4 4 -1 11 7 16 19 12 27 3 12 -12z m685 -25 c-1 -16 -8 -28 -15 -28 -7 0 -17
-7 -22 -15 -5 -8 -10 -12 -10 -7 0 7 42 77 47 77 1 0 1 -12 0 -27z m-1507 7
c0 -5 -2 -10 -4 -10 -3 0 -8 5 -11 10 -3 6 -1 10 4 10 6 0 11 -4 11 -10z
m-2824 -86 c8 -20 12 -39 9 -42 -3 -3 -8 4 -12 16 -3 12 -12 22 -19 22 -8 0
-14 9 -14 20 0 32 20 23 36 -16z m64 -4 c0 -5 -4 -10 -10 -10 -5 0 -10 5 -10
10 0 6 5 10 10 10 6 0 10 -4 10 -10z m2230 -10 c0 -5 -5 -10 -11 -10 -5 0 -7
5 -4 10 3 6 8 10 11 10 2 0 4 -4 4 -10z m1323 -5 c-3 -9 -8 -14 -10 -11 -3 3
-2 9 2 15 9 16 15 13 8 -4z m-3640 -31 c-4 -10 2 -17 17 -21 17 -4 21 -11 17
-30 -2 -13 0 -26 4 -29 5 -3 9 4 9 15 0 30 37 27 66 -5 33 -34 34 -119 3 -158
l-21 -27 21 -6 c54 -14 9 -23 -114 -23 -110 0 -135 3 -135 14 0 11 19 14 88
14 140 0 131 -2 129 35 l-2 32 -83 -2 c-45 -1 -91 -7 -102 -13 -22 -12 -20
-18 -20 89 0 38 35 81 67 81 10 0 25 5 33 10 12 8 13 13 3 29 -14 22 -6 36 13
20 7 -6 10 -17 7 -25z m114 -6 c-3 -7 -5 -2 -5 12 0 14 2 19 5 13 2 -7 2 -19
0 -25z m2760 16 c-3 -3 -12 -4 -19 -1 -8 3 -5 6 6 6 11 1 17 -2 13 -5z m152
-86 c-1 -37 -2 -39 -9 -18 -12 36 -12 60 0 60 6 0 10 -19 9 -42z m679 6 c-3
-14 -5 -12 -10 9 -3 19 -2 25 4 19 6 -6 8 -18 6 -28z m2 -60 c0 -8 -19 -13
-24 -6 -3 5 1 9 9 9 8 0 15 -2 15 -3z m678 -65 c2 -30 -20 -79 -36 -79 -4 0
-5 23 -3 51 2 29 6 46 11 40 5 -10 9 -9 13 3 9 23 12 20 15 -15z m-785 -33
c11 1 16 0 13 -4 -13 -12 -36 -10 -48 6 -11 15 -11 15 2 6 8 -6 23 -10 33 -8z
m867 -2 c0 -2 -7 -4 -15 -4 -8 0 -15 4 -15 10 0 5 7 7 15 4 8 -4 15 -8 15 -10z
m-594 -19 c9 -14 21 -22 26 -19 6 4 6 9 -2 14 -7 4 -8 10 -3 13 16 10 196 8
253 -3 30 -6 60 -11 66 -12 24 -3 1 -38 -25 -38 -26 -1 -246 -10 -268 -12 -7
-1 -13 -8 -13 -17 0 -14 -1 -14 -10 -1 -6 10 -6 16 0 18 16 6 1 22 -21 22 -14
0 -18 -6 -16 -22 2 -12 9 -24 15 -26 7 -2 12 -8 12 -14 0 -5 -12 -1 -27 10
-41 28 -63 34 -63 17 0 -22 -10 -19 -42 12 -25 24 -28 25 -28 7 -1 -18 -1 -18
-14 -1 -7 9 -16 17 -20 17 -11 0 -36 27 -36 39 0 13 27 15 35 2 4 -8 60 -9 60
-1 0 1 17 4 38 5 21 1 41 5 44 9 12 11 22 6 39 -19z m707 5 c-7 -28 -23 -36
-23 -11 0 10 6 22 13 24 6 3 13 6 14 6 0 1 -1 -8 -4 -19z m-1123 -5 c0 -8 -4
-15 -10 -15 -5 0 -10 7 -10 15 0 8 5 15 10 15 6 0 10 -7 10 -15z m-5982 -57
c-3 -7 -21 -21 -41 -31 -20 -9 -52 -34 -71 -54 -48 -53 -54 -36 -9 26 24 32
49 55 68 60 43 13 57 13 53 -1z m6102 -15 c0 -19 -3 -24 -9 -15 -4 8 -11 13
-15 13 -3 -1 -5 2 -3 7 1 4 5 6 10 5 4 -2 7 2 7 7 0 6 2 10 5 10 3 0 5 -12 5
-27z m-689 -15 c4 -7 9 -6 13 1 14 22 28 11 21 -18 -9 -41 4 -81 25 -81 20 0
34 -26 20 -35 -6 -4 -10 -15 -10 -26 0 -11 -7 -19 -16 -19 -9 0 -14 7 -12 18
6 35 -23 98 -57 121 -18 12 -35 31 -38 43 -5 17 -2 19 21 13 15 -4 30 -11 33
-17z m-2183 -4 c12 -4 22 -10 22 -14 0 -6 -137 -69 -182 -83 -18 -6 -93 55
-81 66 3 4 37 7 75 7 54 0 68 3 68 15 0 16 53 21 98 9z m3772 -8 c0 -3 -4 -8
-10 -11 -5 -3 -10 -1 -10 4 0 6 5 11 10 11 6 0 10 -2 10 -4z m-869 -29 c-13
-13 -26 -3 -16 12 3 6 11 8 17 5 6 -4 6 -10 -1 -17z m255 -19 c-6 -10 -19 -18
-28 -18 -10 0 -18 -4 -18 -10 0 -5 -4 -10 -10 -10 -5 0 -10 11 -10 24 0 20 -4
23 -22 18 -14 -3 -19 -1 -14 6 3 6 30 10 60 9 48 -2 52 -4 42 -19z m-986 -48
c0 -24 -4 -30 -21 -30 -12 0 -17 4 -14 11 4 5 -1 19 -11 30 -17 18 -16 19 14
19 29 0 32 -3 32 -30z m1714 9 c22 3 26 -3 26 -33 0 -19 -5 -47 -10 -63 -9
-25 -9 -26 4 -10 14 18 14 18 18 0 7 -33 -3 -53 -29 -53 -35 0 -66 19 -59 36
3 9 1 12 -4 9 -11 -7 -12 -5 -15 40 -2 31 13 75 25 75 4 0 12 -10 19 -22 10
-21 11 -20 6 12 -3 21 -2 30 4 22 4 -8 11 -13 15 -13z m73 -91 c-3 -8 -6 -5
-6 6 -1 11 2 17 5 13 3 -3 4 -12 1 -19z m-1413 -104 c10 -26 7 -224 -4 -244
-11 -20 -41 -16 -90 10 -22 12 -22 15 -15 104 10 130 27 143 29 21 1 -29 5
-40 16 -40 12 0 15 15 17 67 2 77 30 127 47 82z m-5444 -124 c10 -7 -15 -9
-80 -8 -80 1 -87 2 -45 8 77 11 109 11 125 0z m5394 -190 l46 -19 0 -56 c0
-51 -10 -69 -25 -45 -4 6 -24 19 -46 30 -37 19 -39 23 -39 65 0 25 4 45 9 45
5 0 30 -9 55 -20z m-5369 -361 c39 -12 110 -35 158 -51 50 -16 98 -26 110 -23
76 20 97 30 98 44 0 9 3 11 5 5 3 -6 0 -22 -5 -37 -21 -55 -133 -60 -251 -11
-132 54 -209 67 -400 67 -132 0 -191 -5 -239 -17 -35 -10 -65 -15 -68 -12 -3
2 15 10 38 15 24 6 69 18 99 27 126 36 327 32 455 -7z m-655 -73 c0 -2 -8 -10
-17 -17 -16 -13 -17 -12 -4 4 13 16 21 21 21 13z m6435 -416 c-3 -5 -12 -10
-18 -10 -7 0 -6 4 3 10 19 12 23 12 15 0z m533 -280 c-7 -10 -14 -17 -17 -15
-4 4 18 35 25 35 2 0 -1 -9 -8 -20z m137 -16 c14 -9 25 -21 25 -28 0 -6 -5 -4
-10 4 -5 8 -10 11 -10 5 0 -5 12 -20 28 -33 l27 -24 -25 7 c-14 4 -29 11 -34
16 -18 16 -26 10 -26 -20 0 -21 6 -30 21 -34 11 -3 19 -11 18 -19 -4 -31 1
-49 13 -42 7 4 8 3 4 -4 -9 -16 -46 3 -46 23 0 33 -19 20 -50 -36 -37 -65 -96
-126 -103 -106 -3 9 -8 9 -20 -2 -28 -23 -19 3 14 40 88 97 116 146 134 237 8
37 8 37 40 16z m-165 -14 c0 -5 -5 -10 -11 -10 -5 0 -7 5 -4 10 3 6 8 10 11
10 2 0 4 -4 4 -10z m-20 -26 c0 -3 -24 -28 -52 -56 -92 -87 -220 -203 -231
-210 -6 -4 -8 -10 -4 -14 7 -8 75 11 117 32 14 7 46 22 73 33 57 24 63 10 15
-37 -92 -86 -162 -165 -150 -169 7 -3 28 10 46 29 19 18 45 41 58 52 12 10 34
29 48 42 35 32 77 38 91 13 5 -11 9 -30 7 -42 -1 -12 1 -28 5 -34 13 -20 61
-15 75 7 13 21 67 27 107 11 19 -8 18 -10 -13 -39 -38 -35 -102 -57 -141 -48
-14 4 -34 8 -44 9 -10 1 -22 9 -27 17 -15 23 -32 -8 -18 -33 8 -16 12 -17 19
-6 15 24 10 -6 -7 -39 -8 -17 -44 -54 -80 -82 -35 -29 -64 -56 -64 -61 0 -5
-8 -9 -18 -9 -18 0 -32 -20 -46 -64 -4 -10 -9 -16 -12 -13 -3 3 -19 1 -35 -5
-20 -7 -29 -17 -29 -31 -1 -43 -18 6 -23 67 -4 51 -10 63 -44 98 -21 22 -50
49 -66 60 l-27 20 -40 -87 c-22 -48 -40 -94 -40 -103 0 -9 17 -32 38 -52 21
-19 47 -50 57 -67 11 -18 22 -33 25 -33 4 0 20 -28 36 -62 16 -35 33 -66 38
-69 5 -4 6 -29 2 -55 -4 -27 -11 -95 -15 -151 -7 -102 -13 -128 -24 -98 -4 8
-2 15 2 15 5 0 8 8 6 18 -1 9 -9 16 -18 14 -15 -2 -57 46 -57 66 0 5 -7 12
-15 16 -8 3 -15 0 -15 -7 0 -24 -21 -87 -29 -87 -4 0 -16 24 -26 54 -16 46
-17 63 -8 113 9 49 8 62 -5 86 -9 15 -19 27 -23 27 -11 0 -20 -100 -18 -183 2
-64 5 -74 17 -65 11 10 13 6 12 -22 -3 -39 7 -70 22 -70 5 0 6 5 3 10 -3 6 -1
10 4 10 13 0 15 -17 3 -24 -5 -3 -8 -15 -6 -28 1 -13 3 -31 3 -41 1 -10 5 -16
10 -13 4 3 6 -6 3 -21 -4 -19 -2 -24 8 -18 8 5 11 4 6 -3 -3 -6 6 -52 20 -103
24 -83 25 -94 12 -118 -15 -27 -13 -75 2 -66 5 3 3 -7 -5 -21 -8 -15 -12 -31
-9 -36 3 -5 0 -7 -7 -6 -7 2 -13 -3 -14 -11 0 -8 -7 -16 -15 -18 -12 -4 -12
-3 -1 5 9 7 10 12 2 16 -12 7 -14 -2 -12 -44 1 -22 0 -23 -9 -7 -6 9 -9 30 -7
46 4 20 0 31 -10 35 -27 11 -43 6 -44 -11 0 -15 -2 -15 -8 2 -5 11 -5 28 0 37
15 27 11 68 -6 68 -8 0 -15 -5 -15 -11 0 -5 -4 -8 -9 -5 -10 7 -18 -37 -27
-154 -4 -47 -12 -91 -18 -99 -8 -12 -8 -13 2 -7 10 6 12 -1 9 -26 -2 -19 -7
-40 -12 -47 -6 -10 -4 -12 6 -6 11 7 12 6 2 -7 -7 -8 -11 -18 -8 -21 3 -4 2
-5 -2 -2 -3 3 -11 -2 -17 -10 -8 -12 -11 13 -10 98 1 62 4 121 7 132 7 23 25
163 33 257 3 35 11 117 19 182 8 66 18 175 21 243 6 110 5 123 -9 123 -13 0
-17 9 -17 34 0 19 3 42 6 50 6 15 8 15 19 0 11 -15 13 -11 18 27 4 24 9 108
13 187 l7 143 32 25 c18 13 67 58 109 99 42 41 86 75 96 75 19 0 26 -19 32
-95 2 -18 9 -30 17 -30 17 0 36 58 21 63 -6 2 -10 37 -10 78 l0 74 -25 -16
c-22 -15 -25 -15 -25 -1 0 9 19 29 43 46 23 16 56 41 72 56 100 87 174 154
200 182 29 30 45 40 45 27z m-7412 -500 c7 -8 18 -14 23 -14 5 0 9 -7 9 -16 0
-15 -3 -15 -27 1 -16 10 -37 27 -47 38 -19 19 -19 19 5 12 13 -4 29 -14 37
-21z m269 -30 c-3 -3 -12 -4 -19 -1 -8 3 -5 6 6 6 11 1 17 -2 13 -5z m214 -64
c113 -27 256 -51 400 -67 38 -4 49 -10 59 -32 7 -15 14 -21 17 -13 8 21 30 14
174 -53 77 -36 193 -86 257 -111 64 -25 124 -49 132 -53 8 -4 24 -35 35 -67
24 -69 69 -147 78 -137 4 3 7 1 7 -6 0 -7 8 -25 19 -39 23 -32 52 -127 43
-138 -4 -4 -2 -4 4 -1 8 5 14 -7 17 -36 3 -23 12 -70 21 -104 17 -67 121 -330
138 -351 6 -7 30 -70 53 -140 24 -70 60 -173 80 -230 20 -56 35 -107 33 -114
-5 -14 -57 94 -155 319 -7 18 -19 35 -25 39 -7 5 -8 3 -3 -6 6 -9 4 -11 -4 -6
-7 5 -10 15 -6 23 4 13 3 14 -10 3 -15 -12 -21 -4 -16 23 1 5 -4 5 -10 1 -9
-5 -10 -2 -6 9 4 11 2 14 -9 10 -13 -5 -13 -8 -1 -22 18 -21 30 -54 17 -46 -6
3 -10 13 -10 21 0 9 -5 12 -12 8 -6 -4 -8 -3 -5 3 4 6 0 16 -8 23 -8 7 -13 16
-10 19 2 4 -2 8 -10 8 -8 0 -12 -4 -10 -8 3 -4 -3 -6 -12 -5 -13 2 -18 12 -17
36 0 28 -1 30 -12 15 -7 -9 -10 -23 -8 -30 3 -7 1 -16 -5 -20 -7 -4 -8 0 -4
11 4 11 3 15 -5 10 -7 -4 -10 1 -7 15 3 15 0 19 -10 15 -8 -3 -17 -1 -20 4 -3
4 6 7 20 6 14 -2 31 4 37 12 9 11 9 14 1 9 -6 -4 -14 -3 -18 3 -3 5 -15 10
-26 10 -13 0 -18 -4 -13 -12 4 -6 3 -8 -4 -4 -6 3 -9 18 -6 32 3 19 1 24 -8
18 -10 -5 -10 -4 -1 6 11 12 7 44 -6 36 -3 -2 -7 18 -9 46 -1 27 1 47 6 44 5
-3 8 -18 6 -33 l-4 -28 10 25 c8 22 9 20 6 -12 -2 -21 0 -36 4 -33 4 2 6 -7 4
-20 -1 -15 2 -23 8 -19 6 4 5 -2 -1 -15 -8 -14 -8 -21 -1 -21 5 0 10 7 10 16
0 8 5 12 10 9 6 -4 7 -11 4 -17 -5 -7 -2 -8 5 -4 9 6 9 12 -2 24 -8 10 -12 22
-10 29 2 6 -1 14 -7 18 -8 5 -7 11 2 23 10 12 10 14 1 8 -9 -5 -13 -1 -13 13
0 11 -5 23 -10 26 -8 5 -7 12 2 23 11 15 11 15 -4 4 -14 -11 -18 -10 -26 4 -5
9 -7 25 -5 35 3 11 1 19 -3 20 -47 5 -64 5 -64 -3 0 -5 -4 -7 -9 -4 -5 3 -11
-1 -14 -9 -4 -8 -15 -12 -28 -10 -12 2 -31 -2 -43 -10 -11 -8 -16 -15 -11 -15
5 0 4 -5 -3 -12 -8 -8 -8 -15 -1 -24 7 -8 7 -14 -1 -19 -6 -4 -9 -1 -8 6 2 7
-3 13 -9 14 -15 0 -18 20 -3 20 6 0 10 3 10 8 0 4 -2 7 -5 7 -3 0 -11 0 -18 0
-15 0 -15 -53 -2 -97 12 -37 -9 -26 -27 15 -38 82 -68 151 -68 156 0 3 -16 32
-35 65 -20 33 -34 64 -33 68 4 17 -93 203 -107 203 -16 0 -13 -27 9 -71 8 -16
11 -29 7 -29 -5 0 -13 -15 -18 -32 -11 -33 -11 -33 -8 10 3 34 -2 48 -22 73
-14 16 -29 27 -34 22 -13 -14 -14 -88 -1 -86 12 3 4 -28 -10 -38 -5 -3 -11
-334 -15 -735 -3 -401 -7 -731 -9 -733 -2 -2 -6 -2 -8 0 -3 2 -7 351 -10 774
-6 852 -5 817 -16 810 -4 -3 -13 2 -20 10 -14 17 -34 9 -26 -11 4 -9 -2 -14
-15 -14 -29 0 -169 66 -169 80 0 6 -6 10 -12 7 -7 -2 -19 3 -26 12 -11 13 -12
13 -7 1 4 -8 -2 -5 -12 8 -15 18 -21 20 -31 10 -9 -9 -15 -9 -24 1 -11 10 -10
11 5 6 9 -4 17 -3 17 2 0 5 -11 10 -26 11 -17 1 -23 -2 -19 -11 4 -6 0 -4 -8
5 -11 14 -16 15 -27 5 -10 -10 -12 -9 -7 4 3 9 0 16 -9 16 -7 0 -10 -5 -7 -11
4 -6 0 -5 -9 1 -8 7 -18 10 -21 6 -4 -3 -7 -1 -7 6 0 7 -4 10 -9 6 -5 -3 -16
2 -25 10 -8 9 -18 16 -21 15 -25 -1 -36 2 -49 16 -9 8 -14 19 -12 23 3 4 -1 8
-9 8 -11 0 -12 -4 -4 -14 9 -10 8 -13 -2 -13 -26 1 -84 36 -81 49 1 7 -2 9 -8
6 -14 -9 -62 3 -56 13 2 4 -3 8 -12 8 -9 1 -21 2 -27 4 -25 6 -56 -1 -49 -12
4 -6 3 -8 -4 -4 -6 3 -15 -2 -21 -11 -6 -10 -11 -13 -11 -8 0 6 -14 11 -32 12
-18 0 -39 9 -48 19 -9 11 -22 20 -30 22 -32 7 -80 45 -80 62 0 18 74 90 92 90
5 0 6 5 3 10 -4 6 -3 10 2 9 19 -3 34 2 29 10 -3 4 5 13 18 19 19 8 28 7 42
-6 27 -24 64 -24 64 -1 0 10 9 24 20 31 11 7 20 17 20 23 0 5 -32 25 -70 44
-54 26 -70 38 -70 55 0 17 -2 18 -10 6 -5 -8 -10 -10 -10 -4 0 6 3 13 6 17 9
8 35 -4 29 -13 -7 -11 45 -29 95 -33 14 -1 28 -6 32 -11 3 -5 17 -10 30 -11
12 -1 24 -7 24 -13 3 -23 4 -24 22 -11 15 12 16 12 4 -2 -7 -9 -9 -25 -5 -34
5 -15 3 -17 -13 -11 -43 18 -57 19 -52 5 3 -8 13 -16 24 -17 10 -2 27 -14 37
-25 11 -14 15 -16 12 -6 -4 10 1 19 12 24 44 19 76 8 54 -19 -8 -10 -6 -12 12
-11 12 1 26 0 32 -3 5 -3 53 -6 106 -6 54 -1 102 -6 110 -12 8 -6 28 -14 44
-17 17 -4 24 -4 17 -1 -6 3 -10 10 -6 15 3 5 0 9 -5 9 -6 0 -10 5 -9 12 2 7
-1 13 -7 13 -5 1 -55 23 -110 49 -55 26 -140 66 -190 89 -92 42 -141 72 -71
43 21 -9 96 -30 167 -46z m-414 44 c-3 -3 -12 -4 -19 -1 -8 3 -5 6 6 6 11 1
17 -2 13 -5z m7603 -23 c0 -6 20 -13 43 -16 27 -4 44 -12 44 -21 0 -14 -23
-14 -46 0 -9 6 -12 5 -8 -2 5 -6 0 -8 -12 -5 -20 5 -48 53 -31 53 6 0 10 -4
10 -9z m-170 -26 c-13 -16 -40 -20 -40 -7 0 14 12 22 33 22 16 0 17 -3 7 -15z
m-466 -44 c28 -29 28 -30 14 -72 -8 -24 -18 -44 -24 -46 -11 -3 -54 61 -54 81
0 19 21 66 30 66 3 0 19 -13 34 -29z m-5727 2 c-4 -3 1 -16 10 -27 18 -21 18
-21 -4 -2 -20 16 -23 36 -6 36 4 0 3 -3 0 -7z m34 -20 c13 -16 12 -17 -3 -4
-17 13 -22 21 -14 21 2 0 10 -8 17 -17z m-835 -53 c1 0 4 -7 8 -15 4 -12 2
-13 -13 -6 -10 6 -20 9 -22 7 -2 -2 -13 5 -23 15 -18 18 -18 18 15 9 19 -6 35
-10 35 -10z m1135 -23 c-10 -9 -11 -8 -5 6 3 10 9 15 12 12 3 -3 0 -11 -7 -18z
m5081 -132 c6 -54 7 -90 1 -96 -5 -5 -48 -20 -95 -33 -47 -13 -91 -27 -97 -30
-19 -12 -12 24 9 46 26 29 25 40 -3 33 -20 -6 -25 -1 -35 33 -15 48 -15 52 -1
52 37 0 124 36 156 65 21 19 42 30 47 25 4 -4 13 -47 18 -95z m-6802 49 c0 -2
-7 -4 -15 -4 -8 0 -15 4 -15 10 0 5 7 7 15 4 8 -4 15 -8 15 -10z m7194 -25 c9
-47 7 -104 -5 -136 -16 -44 -24 -13 -21 81 4 88 14 111 26 55z m-3958 -5 c0
-20 -11 -25 -11 -6 0 4 -3 12 -7 18 -4 6 -1 11 5 11 7 0 13 -11 13 -23z m4144
22 c0 -3 -4 -8 -10 -11 -5 -3 -10 -1 -10 4 0 6 5 11 10 11 6 0 10 -2 10 -4z
m-30 -24 c0 -11 -22 -32 -32 -32 -5 0 -4 9 2 20 11 20 30 28 30 12z m-50 -41
c0 -16 -30 -41 -48 -41 -12 0 -9 7 13 25 34 28 35 28 35 16z m-7312 -189 c24
-22 6 -24 -19 -2 -14 12 -18 19 -9 18 8 -2 21 -9 28 -16z m1830 -55 c6 0 12
-3 12 -7 0 -4 6 -7 13 -8 85 -10 242 -21 367 -26 445 -18 408 -14 502 -52 133
-53 230 -74 365 -81 67 -3 127 -9 134 -14 10 -6 9 -15 -2 -46 l-15 -38 -109
-1 c-61 0 -207 3 -325 8 l-215 9 -21 -24 c-21 -25 -82 -184 -86 -227 l-3 -25
115 -7 c66 -4 137 -14 167 -24 50 -17 53 -17 72 0 31 28 56 17 56 -24 0 -33 2
-35 35 -38 44 -3 137 48 150 83 5 14 16 25 25 25 18 0 18 -5 5 -30 -5 -10 -7
-26 -4 -35 8 -19 67 -13 157 17 44 14 62 16 72 8 11 -9 17 1 30 47 30 103 80
185 129 210 25 13 30 13 43 0 12 -12 12 -20 -3 -58 -17 -43 -108 -173 -139
-199 -33 -27 -8 -100 34 -100 20 0 105 51 142 86 20 19 32 23 57 18 27 -6 31
-11 34 -43 3 -33 6 -36 36 -39 35 -4 102 29 136 67 25 27 37 18 23 -19 -17
-46 1 -49 40 -7 19 21 37 36 41 33 3 -4 -2 -28 -11 -54 -9 -26 -17 -51 -17
-55 0 -10 29 6 119 64 41 27 76 49 78 49 2 0 0 -7 -5 -17 -5 -9 -54 -44 -108
-78 -93 -57 -101 -65 -132 -125 -18 -36 -46 -78 -62 -95 -23 -25 -26 -34 -17
-53 8 -18 6 -28 -11 -52 -27 -36 -27 -40 1 -41 12 -1 4 -5 -18 -8 -49 -7 -55
3 -21 38 37 39 34 81 -5 60 -16 -8 -19 -6 -19 13 -1 13 -1 36 -1 51 -1 35 33
74 112 128 38 25 61 49 68 70 14 41 14 41 -8 29 -30 -15 -48 -12 -54 10 -5 19
-6 19 -49 -5 -56 -32 -122 -34 -139 -4 l-11 21 -22 -21 c-27 -25 -42 -27 -54
-6 -7 14 -14 13 -53 -9 -24 -14 -56 -26 -71 -26 -27 0 -68 30 -68 50 0 16 -18
12 -49 -11 -33 -24 -51 -19 -51 17 0 28 -5 28 -84 12 -46 -9 -60 -16 -67 -35
-5 -13 -9 -28 -9 -32 0 -5 34 -12 75 -16 47 -4 75 -11 75 -18 0 -7 -18 -32
-39 -56 l-38 -44 -319 1 c-329 2 -708 18 -734 31 -26 14 -80 201 -67 235 5 13
35 15 197 13 162 -2 191 0 194 13 23 83 9 174 -35 221 -22 24 -35 29 -73 29
-32 0 -48 5 -55 18 -6 11 -23 18 -48 19 -122 7 -353 39 -365 51 -12 12 -49
121 -50 146 -2 42 2 48 20 41 9 -4 23 -8 30 -8z m-642 -89 c12 -14 13 -18 3
-10 -9 6 -18 10 -21 7 -2 -3 -5 2 -5 10 0 19 0 19 23 -7z m-374 -26 c41 -36
68 -46 68 -28 0 8 -6 16 -12 19 -7 2 -10 8 -6 12 5 5 17 0 29 -11 16 -15 19
-25 13 -54 -7 -39 -7 -87 1 -142 4 -31 2 -38 -11 -38 -16 0 -16 -1 0 -19 9
-10 14 -25 10 -34 -3 -9 -6 -35 -7 -59 -2 -41 -3 -43 -32 -40 -23 2 -27 1 -15
-7 8 -6 23 -11 33 -11 9 0 17 -4 17 -10 0 -14 -43 -12 -64 3 -27 20 -16 52 17
50 35 -2 35 14 0 29 l-28 11 35 7 35 6 -28 9 c-31 8 -50 43 -35 62 6 7 5 14
-2 18 -5 3 -10 19 -10 35 0 28 2 29 33 25 l32 -5 -30 14 c-16 9 -38 15 -47 16
-10 0 -18 7 -18 15 0 12 8 14 43 9 l42 -7 -35 34 c-19 18 -48 41 -65 50 -37
20 -48 69 -16 69 11 0 35 -13 53 -28z m5908 -49 c6 -21 13 -79 17 -129 l6 -91
-48 -17 c-27 -9 -52 -16 -57 -16 -12 0 -10 138 2 145 6 4 23 9 37 11 47 9 39
15 -10 10 -44 -5 -49 -3 -57 20 -26 67 -25 70 27 87 68 22 71 21 83 -20z
m-5514 15 c5 -7 3 -8 -6 -3 -9 6 -10 2 -5 -16 13 -42 24 -44 37 -8 l12 34 13
-33 c7 -17 17 -32 21 -32 10 0 42 -70 42 -91 0 -9 -8 -6 -22 9 -13 13 -48 39
-78 58 -30 18 -49 34 -42 34 7 0 12 8 12 18 0 14 -2 15 -10 2 -13 -20 -13 -4
0 21 12 22 16 23 26 7z m5880 -71 c-2 -13 -21 -21 -21 -9 0 4 -4 12 -8 19 -5
7 -1 9 12 6 10 -3 18 -10 17 -16z m-5216 -117 c0 -5 -2 -10 -4 -10 -3 0 -8 5
-11 10 -3 6 -1 10 4 10 6 0 11 -4 11 -10z m4932 -65 c-12 -22 -27 -2 -18 22 5
12 10 13 17 6 7 -7 8 -17 1 -28z m-5099 -70 c-7 -21 -12 -19 -10 4 0 11 5 18
9 15 4 -3 5 -11 1 -19z m5350 -45 c3 -11 1 -18 -4 -14 -5 3 -9 12 -9 20 0 20
7 17 13 -6z m-5505 -22 c-2 -7 3 -12 11 -10 12 3 12 0 1 -12 -14 -18 -1 -22
18 -6 7 5 6 3 -1 -5 -19 -22 -48 -9 -43 18 6 28 5 27 11 27 3 0 4 -6 3 -12z
m112 6 c0 -8 -19 -13 -24 -6 -3 5 1 9 9 9 8 0 15 -2 15 -3z m5404 -38 c-3 -9
-10 -13 -15 -10 -5 3 -3 11 4 19 15 16 19 13 11 -9z m-5520 -52 c3 -16 8 -41
12 -56 3 -16 3 -28 0 -28 -10 0 -46 92 -39 103 4 6 1 7 -7 2 -10 -6 -12 -4 -7
9 4 10 7 23 7 29 0 21 29 -29 34 -59z m-651 -5 c30 -22 36 -56 11 -66 -17 -6
-64 33 -64 54 0 9 -13 13 -39 13 -33 0 -40 -4 -44 -22 -3 -21 -4 -21 -12 6 -9
34 4 46 54 46 27 0 32 3 27 18 -5 13 -2 12 16 -6 13 -12 35 -32 51 -43z m892
-29 c3 -6 -1 -7 -9 -4 -18 7 -21 14 -7 14 6 0 13 -4 16 -10z m4824 -61 c6 -18
11 -52 11 -75 0 -41 -2 -44 -27 -45 -28 -2 -28 -2 -3 -6 14 -3 28 -10 32 -17
10 -15 10 -74 0 -80 -7 -4 -205 -46 -218 -46 -9 0 -3 49 13 95 15 46 71 174
80 184 2 3 22 8 46 12 23 3 45 7 49 8 3 0 11 -13 17 -30z m-4744 -38 c3 -5 2
-12 -3 -15 -5 -3 -9 1 -9 9 0 17 3 19 12 6z m-1047 -41 c30 -34 79 -43 68 -12
-7 16 -6 16 10 0 10 -10 13 -21 8 -30 -5 -7 -9 -24 -9 -38 0 -22 -4 -25 -28
-22 -20 2 -27 -1 -22 -8 4 -7 18 -10 30 -8 19 4 24 0 28 -26 7 -47 -10 -59
-67 -46 -26 6 -58 18 -72 26 -31 21 -32 54 -1 54 18 0 19 -2 7 -10 -13 -9 -12
-12 5 -26 11 -8 28 -13 37 -11 9 3 18 1 20 -3 5 -13 51 -16 55 -4 2 5 -11 17
-29 25 -24 10 -34 21 -36 42 -3 27 -2 29 27 22 53 -11 35 13 -22 29 -76 22
-119 76 -61 76 16 0 36 -11 52 -30z m1152 -40 c0 -5 -5 -10 -11 -10 -5 0 -7 5
-4 10 3 6 8 10 11 10 2 0 4 -4 4 -10z m1070 -101 c0 -27 2 -28 21 -17 17 11
22 10 35 -6 18 -26 18 -51 -2 -70 -20 -21 -60 -21 -68 0 -10 27 -7 136 4 129
6 -3 10 -19 10 -36z m581 31 c23 -13 25 -48 4 -76 -20 -26 -19 -34 5 -34 11 0
20 -4 20 -10 0 -5 -20 -10 -45 -10 -25 0 -45 3 -45 7 0 4 11 18 24 32 36 38
37 65 4 69 -31 4 -37 18 -10 25 9 3 18 5 20 6 2 0 12 -4 23 -9z m-193 -29 c2
-13 -6 -36 -17 -52 l-22 -29 26 0 c14 0 25 -4 25 -10 0 -5 -20 -10 -45 -10
-25 0 -45 3 -45 6 0 4 14 22 31 41 35 40 33 59 -5 56 -25 -2 -33 7 -19 21 4 4
21 6 38 4 23 -2 31 -9 33 -27z m112 10 c26 -50 4 -111 -40 -111 -33 0 -50 23
-50 65 0 42 17 65 50 65 19 0 33 -7 40 -19z m-1276 -7 c21 -8 20 -48 0 -79
-16 -24 -15 -25 5 -25 23 0 29 -15 9 -23 -15 -5 -78 3 -78 10 0 3 11 18 25 35
14 16 25 39 25 50 0 17 -4 19 -25 14 -24 -6 -33 3 -18 17 8 9 36 9 57 1z m120
-10 c10 -27 7 -89 -6 -102 -16 -16 -53 -15 -66 1 -19 24 -24 59 -12 88 10 24
18 29 45 29 21 0 35 -6 39 -16z m180 -16 c15 -43 -3 -81 -44 -94 -19 -7 -38
-10 -42 -7 -5 2 -8 33 -8 69 l0 65 42 -3 c36 -3 44 -7 52 -30z m429 3 c11 -1
9 -91 -2 -91 -6 0 -11 17 -13 38 -4 48 -22 48 -26 -1 -4 -49 -26 -44 -30 6 -4
47 -22 38 -22 -9 0 -48 -24 -40 -28 9 -3 31 1 39 19 45 18 7 63 8 102 3z m205
-18 c3 -17 -3 -22 -23 -25 -35 -4 -35 -22 1 -28 29 -6 29 -6 7 -18 -19 -11
-26 -9 -43 8 -22 22 -25 42 -9 71 15 28 63 22 67 -8z m89 10 c2 -6 -6 -13 -19
-15 -17 -2 -24 -11 -26 -30 -2 -16 -7 -28 -12 -28 -9 0 -19 78 -11 86 10 9 64
-1 68 -13z m-629 -5 c19 -19 14 -36 -13 -40 -33 -4 -32 -24 1 -21 34 3 26 -21
-8 -25 -18 -2 -31 4 -41 19 -32 45 23 105 61 67z m97 2 c3 -6 -5 -10 -18 -10
-14 0 -28 -7 -31 -16 -9 -23 13 -46 35 -39 11 4 19 2 19 -4 0 -6 -15 -11 -34
-11 -26 0 -35 5 -39 22 -12 43 47 92 68 58z m95 -9 c15 -29 13 -31 -21 -31
-20 0 -29 -4 -26 -12 2 -7 16 -12 31 -10 14 1 26 -2 26 -8 0 -7 -15 -10 -37
-8 -33 3 -38 7 -41 31 -2 16 -1 35 2 43 8 21 54 17 66 -5z m-1950 -48 c0 -15
-59 -21 -87 -8 -36 16 -27 22 32 21 35 -1 55 -5 55 -13z m1 -62 c48 -49 37
-120 -17 -107 -72 18 -119 23 -122 15 -5 -13 -22 0 -22 16 0 7 10 15 22 17 32
5 33 25 2 41 -17 9 -23 17 -16 21 7 4 22 1 34 -6 13 -7 26 -11 29 -11 4 1 9
-11 13 -28 3 -16 11 -29 18 -28 35 4 58 -2 58 -17 0 -8 5 -12 10 -9 27 17 -15
98 -49 94 -37 -3 -44 0 -31 16 19 22 38 18 71 -14z m2094 -32 c50 -15 109 -33
131 -39 45 -11 54 -29 54 -109 0 -56 -11 -61 -129 -61 -58 0 -189 -7 -291 -15
-102 -9 -241 -14 -310 -13 l-124 3 -27 85 c-15 47 -28 106 -28 133 l-1 47 318
-1 317 -1 90 -29z m3891 -1 c4 -6 3 -8 -3 -5 -6 4 -16 0 -23 -8 -13 -15 -30
-12 -30 7 0 5 7 8 15 5 8 -4 17 -2 20 3 8 13 12 12 21 -2z m-85 -29 c-11 -12
-23 -21 -28 -21 -4 0 -13 -4 -20 -9 -7 -7 -14 -6 -18 1 -8 13 2 43 13 37 4 -3
18 1 32 8 33 18 44 9 21 -16z m-6732 -293 c10 -11 8 -16 -7 -20 -34 -11 -71
15 -39 27 22 9 34 7 46 -7z m2165 -12 c3 -8 2 -12 -4 -9 -6 3 -10 10 -10 16 0
14 7 11 14 -7z m-1832 -131 c19 -41 16 -82 -3 -52 -7 11 -9 10 -9 -3 0 -10 -4
-18 -9 -18 -8 0 -15 34 -26 135 l-5 50 16 -35 c10 -19 26 -54 36 -77z m1918 6
c0 -6 -4 -7 -10 -4 -5 3 -10 11 -10 16 0 6 5 7 10 4 6 -3 10 -11 10 -16z
m-1857 -105 c18 -24 18 -24 -5 -24 -42 0 -68 12 -68 30 0 36 45 33 73 -6z
m193 -51 c-11 -11 -19 6 -11 24 8 17 8 17 12 0 3 -10 2 -21 -1 -24z"/>
<path d="M7884 8980 c0 -13 4 -16 10 -10 7 7 7 13 0 20 -6 6 -10 3 -10 -10z"/>
<path d="M6874 7975 c0 -13 3 -22 7 -19 8 4 6 30 -2 38 -3 3 -5 -5 -5 -19z"/>
<path d="M7020 7995 c0 -7 30 -13 34 -7 3 4 -4 9 -15 9 -10 1 -19 0 -19 -2z"/>
<path d="M6737 7951 c-4 -17 -3 -21 5 -13 5 5 8 16 6 23 -3 8 -7 3 -11 -10z"/>
<path d="M6825 7960 c-4 -6 -10 -8 -14 -6 -4 3 -8 -1 -8 -9 0 -13 4 -12 19 2
18 16 22 23 14 23 -3 0 -8 -5 -11 -10z"/>
<path d="M6836 7942 c-11 -14 -13 -22 -6 -17 10 6 12 4 7 -9 -4 -11 -3 -15 4
-11 6 4 8 13 5 20 -2 7 1 18 7 24 6 6 9 13 6 15 -2 2 -13 -8 -23 -22z"/>
<path d="M6667 7931 c-2 -10 -1 -24 3 -30 4 -7 7 1 8 18 1 35 -3 40 -11 12z"/>
<path d="M6693 7895 c0 -8 4 -12 9 -9 5 3 6 10 3 15 -9 13 -12 11 -12 -6z"/>
<path d="M6885 7790 c-11 -5 -31 -11 -45 -14 -14 -4 -50 -29 -80 -57 -30 -28
-49 -48 -42 -45 6 4 12 2 12 -4 0 -6 5 -8 10 -5 6 3 10 1 10 -5 0 -6 5 -8 10
-5 6 3 10 -2 11 -12 0 -16 1 -16 9 2 8 18 9 18 9 2 1 -10 -5 -20 -12 -23 -17
-6 -21 -70 -5 -76 7 -3 25 -4 40 -3 16 1 24 -3 22 -10 -3 -6 7 -22 21 -35 22
-21 35 -24 103 -25 75 0 79 1 136 42 32 24 64 40 70 36 6 -3 8 -3 4 2 -4 4 9
19 30 32 28 20 40 23 52 14 28 -21 44 -25 48 -12 2 6 21 31 42 54 33 36 44 42
77 41 43 -1 48 -10 58 -106 4 -32 9 -58 13 -58 10 1 52 96 52 118 0 11 7 25
15 32 9 8 15 30 15 57 l0 44 -112 -2 c-62 -1 -118 0 -124 2 -7 2 -21 -7 -32
-19 l-21 -24 -33 25 c-35 27 -69 33 -243 41 -55 3 -109 1 -120 -4z"/>
<path d="M6683 7735 c0 -8 4 -12 9 -9 5 3 6 10 3 15 -9 13 -12 11 -12 -6z"/>
<path d="M6433 7703 c0 -9 4 -10 14 -2 7 6 13 12 13 14 0 1 -6 2 -13 2 -8 0
-14 -6 -14 -14z"/>
<path d="M7516 7555 c-3 -9 -6 -22 -5 -28 0 -7 5 -1 10 12 5 13 8 26 5 28 -2
2 -6 -3 -10 -12z"/>
<path d="M7470 7420 c0 -5 5 -10 10 -10 6 0 10 5 10 10 0 6 -4 10 -10 10 -5 0
-10 -4 -10 -10z"/>
<path d="M7487 7237 c-3 -8 1 -14 8 -14 7 0 11 6 8 14 -3 7 -6 13 -8 13 -2 0
-5 -6 -8 -13z"/>
<path d="M6575 7181 c-3 -5 -2 -12 3 -15 5 -3 9 1 9 9 0 17 -3 19 -12 6z"/>
<path d="M8333 8518 c-17 -22 -26 -45 -10 -26 8 10 16 16 19 13 2 -3 5 2 5 10
0 18 -2 18 -14 3z"/>
<path d="M8507 8393 c-4 -3 -7 -13 -7 -21 0 -18 13 -7 16 13 2 17 1 18 -9 8z"/>
<path d="M8609 8388 c-1 -7 -2 -21 -2 -31 0 -10 -2 -15 -6 -12 -3 4 -6 12 -6
18 0 5 -6 12 -14 15 -9 3 -11 0 -6 -8 4 -7 2 -16 -6 -21 -10 -6 -11 -9 -1 -9
6 0 12 -5 12 -11 0 -5 -4 -8 -8 -5 -5 3 -9 -1 -9 -9 0 -8 5 -13 11 -12 6 1 10
-4 8 -11 -1 -8 2 -11 8 -7 6 3 8 10 5 15 -3 5 -1 11 4 14 5 3 11 -4 14 -16 5
-19 8 -20 23 -7 16 13 17 12 10 -6 -5 -15 -4 -17 4 -9 16 15 19 46 8 61 -5 7
-6 18 -2 25 6 11 5 11 -8 0 -17 -14 -35 -1 -23 17 3 5 1 12 -5 16 -5 3 -11 0
-11 -7z m47 -74 c1 -9 0 -13 -3 -10 -4 3 -12 1 -20 -5 -10 -9 -13 -8 -14 2 -1
8 -3 24 -4 36 -2 20 -1 21 18 8 12 -8 22 -22 23 -31z m-62 6 c-6 -6 -10 -3
-10 10 0 13 4 16 10 10 7 -7 7 -13 0 -20z"/>
<path d="M8621 8333 c-1 -17 16 -25 25 -12 4 7 3 9 -4 5 -5 -3 -13 0 -15 6 -4
9 -6 10 -6 1z"/>
<path d="M8672 8260 c0 -14 2 -19 5 -12 2 6 2 18 0 25 -3 6 -5 1 -5 -13z"/>
<path d="M8790 8051 c0 -6 4 -13 10 -16 6 -3 7 1 4 9 -7 18 -14 21 -14 7z"/>
<path d="M8803 7931 c1 -15 4 -17 14 -9 7 5 10 14 7 19 -10 16 -23 9 -21 -10z"/>
<path d="M8325 6751 c-3 -6 -4 -11 0 -11 3 0 1 -10 -6 -21 -8 -15 -8 -19 0
-15 11 7 15 -6 11 -34 -3 -23 10 -6 15 19 2 12 -1 21 -8 21 -8 0 -8 3 -2 8 12
8 13 27 4 37 -4 3 -10 2 -14 -4z"/>
<path d="M8306 6524 c-5 -14 -4 -15 9 -4 17 14 19 20 6 20 -5 0 -12 -7 -15
-16z"/>
<path d="M8134 6433 c10 -11 37 -12 30 -2 -3 5 -12 9 -21 9 -9 0 -13 -3 -9 -7z"/>
<path d="M5955 7241 c-2 -5 6 -16 20 -25 14 -9 25 -12 25 -7 0 6 8 8 18 4 13
-4 13 -2 -3 9 -28 21 -53 29 -60 19z"/>
<path d="M8980 7003 c0 -12 4 -24 10 -28 12 -7 2 -35 -12 -32 -6 1 -11 -8 -13
-20 -1 -12 3 -21 9 -20 5 1 11 -4 12 -10 1 -7 2 -16 3 -20 2 -12 25 16 27 34
2 10 -1 23 -7 29 -6 7 -6 21 1 38 6 16 6 25 1 21 -6 -3 -14 3 -20 12 -9 16
-10 16 -11 -4z m25 -92 c1 -12 -2 -24 -7 -27 -5 -3 -7 -2 -6 3 1 4 -3 18 -10
30 -10 18 -9 21 5 19 9 -2 17 -13 18 -25z"/>
<path d="M8933 6899 c-2 -23 3 -25 10 -4 4 8 3 16 -1 19 -4 3 -9 -4 -9 -15z"/>
<path d="M7480 7003 c0 -13 5 -23 10 -23 13 0 13 11 0 30 -8 12 -10 11 -10 -7z"/>
<path d="M7835 6300 c3 -5 8 -10 11 -10 2 0 4 5 4 10 0 6 -5 10 -11 10 -5 0
-7 -4 -4 -10z"/>
<path d="M4585 6450 c-8 -13 5 -13 25 0 13 8 13 10 -2 10 -9 0 -20 -4 -23 -10z"/>
<path d="M4527 6416 c-6 -15 1 -26 15 -26 11 0 10 27 -1 34 -5 3 -11 0 -14 -8z"/>
<path d="M8410 6255 c-7 -8 -16 -12 -21 -9 -5 3 -9 3 -9 0 0 -3 8 -10 18 -15
14 -7 21 -5 30 9 14 23 -1 36 -18 15z"/>
<path d="M8710 4061 c0 -6 4 -13 10 -16 6 -3 7 1 4 9 -7 18 -14 21 -14 7z"/>
<path d="M8631 3884 c0 -11 3 -14 6 -6 3 7 2 16 -1 19 -3 4 -6 -2 -5 -13z"/>
<path d="M8215 2681 c-3 -5 -1 -12 4 -15 10 -7 3 -44 -11 -52 -5 -3 -7 6 -4
20 3 16 1 24 -5 20 -6 -3 -8 -8 -5 -11 3 -3 1 -14 -4 -23 -8 -14 -6 -18 8 -16
22 4 44 46 32 62 -6 6 -7 14 -3 17 3 4 4 7 0 7 -3 0 -8 -4 -12 -9z"/>
<path d="M2305 3578 c14 -29 25 -59 25 -65 0 -7 4 -13 9 -13 12 0 -34 123 -48
128 -6 2 0 -20 14 -50z"/>
<path d="M1371 3593 c8 -9 15 -10 24 -3 6 5 15 8 18 5 4 -3 5 -2 2 2 -3 4 -17
8 -30 9 -20 1 -23 -2 -14 -13z"/>
<path d="M1738 3413 c7 -3 16 -2 19 1 4 3 -2 6 -13 5 -11 0 -14 -3 -6 -6z"/>
<path d="M2624 3209 c-72 -27 -94 -79 -65 -151 10 -27 31 -39 31 -18 0 5 22
48 49 94 27 47 46 88 43 90 -4 2 -30 -5 -58 -15z"/>
<path d="M3644 2983 l-31 -4 24 -46 c12 -26 23 -61 23 -80 0 -18 4 -33 8 -33
10 0 62 128 62 153 0 17 -14 19 -86 10z"/>
<path d="M4689 2930 c-35 -20 -135 -210 -111 -210 10 0 72 82 106 142 30 52
32 83 5 68z"/>
<path d="M4787 2666 c-18 -19 -22 -36 -8 -36 13 0 33 28 29 41 -3 8 -9 6 -21
-5z"/>
<path d="M4481 2648 c-5 -13 -7 -25 -5 -27 5 -6 44 30 44 41 0 18 -31 7 -39
-14z"/>
<path d="M4220 2634 c-42 -30 -49 -44 -21 -44 12 0 21 6 21 16 0 8 14 20 30
25 17 6 30 15 30 20 0 15 -23 8 -60 -17z"/>
<path d="M4258 2603 c7 -3 16 -2 19 1 4 3 -2 6 -13 5 -11 0 -14 -3 -6 -6z"/>
<path d="M4971 2454 c-34 -31 -51 -54 -51 -70 0 -13 3 -24 8 -24 18 0 56 36
83 78 49 78 35 83 -40 16z"/>
<path d="M2075 2860 c-4 -6 6 -10 22 -10 22 0 25 2 13 10 -19 12 -27 12 -35 0z"/>
<path d="M2082 2598 c6 -16 36 -34 44 -25 9 9 -15 37 -33 37 -8 0 -13 -5 -11
-12z"/>
<path d="M1990 2461 c0 -9 24 -21 42 -21 6 0 6 6 -2 15 -14 16 -40 20 -40 6z"/>
<path d="M4282 2268 c-16 -16 -15 -48 2 -48 24 0 37 25 23 44 -10 13 -15 14
-25 4z"/>
<path d="M4710 2275 c0 -39 3 -46 18 -43 13 2 17 13 17 43 0 30 -4 41 -17 43
-15 3 -18 -4 -18 -43z"/>
<path d="M3554 2276 c-8 -34 4 -68 24 -64 24 5 24 81 0 86 -12 2 -19 -5 -24
-22z"/>
<path d="M3727 2303 c-4 -3 -7 -26 -7 -50 0 -40 2 -44 22 -41 33 5 47 51 23
78 -19 21 -28 24 -38 13z"/>
<path d="M4380 2270 c0 -5 7 -10 16 -10 8 0 12 5 9 10 -3 6 -10 10 -16 10 -5
0 -9 -4 -9 -10z"/>
<path d="M3840 2260 c0 -5 7 -10 15 -10 8 0 15 5 15 10 0 6 -7 10 -15 10 -8 0
-15 -4 -15 -10z"/>
<path d="M4035 2270 c-3 -5 1 -10 10 -10 9 0 13 5 10 10 -3 6 -8 10 -10 10 -2
0 -7 -4 -10 -10z"/>
<path d="M7973 2083 c0 -6 5 -9 11 -5 6 4 14 7 18 7 3 0 10 3 14 8 4 4 -4 6
-18 5 -13 -1 -25 -8 -25 -15z"/>
<path d="M9057 4143 c-3 -5 1 -19 8 -33 l14 -25 -3 28 c-3 30 -11 43 -19 30z"/>
<path d="M9104 3915 c-3 -8 -4 -20 -2 -27 3 -7 7 -1 10 15 6 29 1 36 -8 12z"/>
</g>
</svg>
